# xmcd
#
# Track frame offsets:
#	150
#	15352
#	30575
#	45915
#	61462
#	80070
#	97190
#	111850
#	132575
#	148872
#	166970
#
# Disc length: 2434 seconds
#
# Revision: 2
# Processed by: cddbd v1.5.2PL0 Copyright (c) Steve Scherf et al.
# Submitted via: audiograbber 1.83.01
#
DISCID=9309800b
DTITLE=Travis Tritt - The Restless Kind
DYEAR=1996
DGENRE=Country
TTITLE0=Restless Kind
TTITLE1=Still In Love With You
TTITLE2=More Than You'll Ever Know
TTITLE3=Draggin' My Heart Around
TTITLE4=Helping Me Get Over You
TTITLE5=Back Up Against The Wall
TTITLE6=Double Trouble
TTITLE7=Did You Fall Far Enough
TTITLE8=She's Going Home With Me
TTITLE9=Sack Full Of Stones
TTITLE10=Where Corn Don't Grow
EXTD=
EXTT0=
EXTT1=
EXTT2=
EXTT3=
EXTT4=
EXTT5=
EXTT6=
EXTT7=
EXTT8=
EXTT9=
EXTT10=
PLAYORDER=
